<?xml version="1.0" encoding="UTF-8" standalone="no"?>
<svg
   xmlns:dc="http://purl.org/dc/elements/1.1/"
   xmlns:cc="http://creativecommons.org/ns#"
   xmlns:rdf="http://www.w3.org/1999/02/22-rdf-syntax-ns#"
   xmlns:svg="http://www.w3.org/2000/svg"
   xmlns="http://www.w3.org/2000/svg"
   xmlns:sodipodi="http://sodipodi.sourceforge.net/DTD/sodipodi-0.dtd"
   xmlns:inkscape="http://www.inkscape.org/namespaces/inkscape"
   aria-hidden="true"
   focusable="false"
   data-prefix="fas"
   data-icon="photo-video"
   class="svg-inline--fa fa-photo-video fa-w-20"
   role="img"
   viewBox="0 0 640 512"
   version="1.1"
   id="svg4"
   sodipodi:docname="photo-video-solid.svg"
   inkscape:version="0.92.4 5da689c313, 2019-01-14">
  <metadata
     id="metadata10">
    <rdf:RDF>
      <cc:Work
         rdf:about="">
        <dc:format>image/svg+xml</dc:format>
        <dc:type
           rdf:resource="http://purl.org/dc/dcmitype/StillImage" />
      </cc:Work>
    </rdf:RDF>
  </metadata>
  <defs
     id="defs8" />
  <sodipodi:namedview
     pagecolor="#ffffff"
     bordercolor="#666666"
     borderopacity="1"
     objecttolerance="10"
     gridtolerance="10"
     guidetolerance="10"
     inkscape:pageopacity="0"
     inkscape:pageshadow="2"
     inkscape:window-width="1638"
     inkscape:window-height="924"
     id="namedview6"
     showgrid="false"
     inkscape:zoom="0.921875"
     inkscape:cx="-72.455184"
     inkscape:cy="317.18827"
     inkscape:window-x="0"
     inkscape:window-y="0"
     inkscape:window-maximized="0"
     inkscape:current-layer="svg4" />
  <path
     d="M 416,160 H 32 C 14.326888,160 0,174.32689 0,192 v 288 c 0,17.67311 14.326888,32 32,32 h 384 c 17.67311,0 32,-14.32689 32,-32 V 192 c 0,-17.67311 -14.32689,-32 -32,-32 z M 96,224 c 12.94278,0 24.61122,7.79659 29.56392,19.75395 4.9527,11.95732 2.21423,25.72043 -6.93765,34.87232 -9.15189,9.15188 -22.914995,11.89035 -34.872324,6.93765 C 71.796593,280.61122 64,268.94278 64,256 64,238.32689 78.326888,224 96,224 Z M 384,448 H 64 v -32 l 64,-64 32,32 128,-128 96,96 z"
     id="path2"
     inkscape:connector-curvature="0"
     style="fill:currentColor"
     sodipodi:nodetypes="ssssssssssssssscccccccc" />
  <path
     inkscape:connector-curvature="0"
     style="fill:currentColor;opacity:0.66"
     d="m 608,-1e-6 H 160 c -17.67311,0 -32,14.326888 -32,32 V 128 H 288 V 64 h 192 v 320 h 128 c 17.67311,0 32,-14.32689 32,-32 V 31.999999 c 0,-17.673112 -14.32689,-32 -32,-32 z M 232,103 c 0,4.97056 -4.02944,9 -9,9 h -30 c -4.97056,0 -9,-4.02944 -9,-9 V 73 c 0,-4.970563 4.02944,-9 9,-9 h 30 c 4.97056,0 9,4.029437 9,9 z m 352,208 c 0,4.97056 -4.02944,9 -9,9 h -30 c -4.97056,0 -9,-4.02944 -9,-9 v -30 c 0,-4.97056 4.02944,-9 9,-9 h 30 c 4.97056,0 9,4.02944 9,9 z m 0,-104 c 0,4.97056 -4.02944,9 -9,9 h -30 c -4.97056,0 -9,-4.02944 -9,-9 v -30 c 0,-4.97056 4.02944,-9 9,-9 h 30 c 4.97056,0 9,4.02944 9,9 z m 0,-104 c 0,4.97056 -4.02944,9 -9,9 h -30 c -4.97056,0 -9,-4.02944 -9,-9 V 73 c 0,-4.970563 4.02944,-9 9,-9 h 30 c 4.97056,0 9,4.029437 9,9 z"
     id="path2-3"
     sodipodi:nodetypes="ssscccccssssssssssssssssssssssssssssssssssssssss" />
</svg>
