<?xml version="1.0" encoding="UTF-8" standalone="no"?>
<svg
   xmlns:dc="http://purl.org/dc/elements/1.1/"
   xmlns:cc="http://creativecommons.org/ns#"
   xmlns:rdf="http://www.w3.org/1999/02/22-rdf-syntax-ns#"
   xmlns:svg="http://www.w3.org/2000/svg"
   xmlns="http://www.w3.org/2000/svg"
   xmlns:sodipodi="http://sodipodi.sourceforge.net/DTD/sodipodi-0.dtd"
   xmlns:inkscape="http://www.inkscape.org/namespaces/inkscape"
   width="24"
   height="24"
   viewBox="0 0 24 24"
   version="1.1"
   id="svg6"
   sodipodi:docname="duotone-data_usage-24px.svg"
   inkscape:version="0.92.4 5da689c313, 2019-01-14">
  <metadata
     id="metadata12">
    <rdf:RDF>
      <cc:Work
         rdf:about="">
        <dc:format>image/svg+xml</dc:format>
        <dc:type
           rdf:resource="http://purl.org/dc/dcmitype/StillImage" />
      </cc:Work>
    </rdf:RDF>
  </metadata>
  <defs
     id="defs10" />
  <sodipodi:namedview
     pagecolor="#ffffff"
     bordercolor="#666666"
     borderopacity="1"
     objecttolerance="10"
     gridtolerance="10"
     guidetolerance="10"
     inkscape:pageopacity="0"
     inkscape:pageshadow="2"
     inkscape:window-width="1685"
     inkscape:window-height="831"
     id="namedview8"
     showgrid="false"
     inkscape:zoom="19.666667"
     inkscape:cx="0.42508808"
     inkscape:cy="15.557138"
     inkscape:window-x="0"
     inkscape:window-y="0"
     inkscape:window-maximized="0"
     inkscape:current-layer="svg6" />
  <path
     d="M0 0h24v24H0z"
     fill="none"
     id="path2" />
  <path
     d="m 13,2.05 v 3.03 c 3.39,0.49 6,3.39 6,6.92 0,0.9 -0.18,1.75 -0.48,2.54 l 2.6,1.53 C 21.68,14.83 22,13.45 22,12 22,6.82 18.05,2.55 13,2.05 Z"
     id="path4"
     inkscape:connector-curvature="0"
     sodipodi:nodetypes="ccsccsc"
     style="opacity:0.66" />
  <path
     inkscape:connector-curvature="0"
     d="M 12,19 C 8.13,19 5,15.87 5,12 5,8.47 7.61,5.57 11,5.08 V 2.05 C 5.94,2.55 1.9999998,6.81 1.9999998,12 c 0,5.52 4.4700002,10 9.9900002,10 3.31,0 6.24,-1.61 8.06,-4.09 l -2.6,-1.53 C 16.17,17.98 14.21,19 12,19 Z"
     id="path4-3"
     sodipodi:nodetypes="ssccssccs" />
</svg>
