<?xml version="1.0" encoding="UTF-8" standalone="no"?>
<svg
   xmlns:dc="http://purl.org/dc/elements/1.1/"
   xmlns:cc="http://creativecommons.org/ns#"
   xmlns:rdf="http://www.w3.org/1999/02/22-rdf-syntax-ns#"
   xmlns:svg="http://www.w3.org/2000/svg"
   xmlns="http://www.w3.org/2000/svg"
   xmlns:sodipodi="http://sodipodi.sourceforge.net/DTD/sodipodi-0.dtd"
   xmlns:inkscape="http://www.inkscape.org/namespaces/inkscape"
   width="24"
   height="24"
   viewBox="0 0 24 24"
   version="1.1"
   id="svg6"
   sodipodi:docname="outline-insert_music-24px.svg"
   inkscape:version="0.92.4 5da689c313, 2019-01-14">
  <path
     d="M 19,5 V 19 H 5 V 5 H 19 M 19,3 H 5 C 3.9,3 3,3.9 3,5 v 14 c 0,1.1 0.9,2 2,2 h 14 c 1.1,0 2,-0.9 2,-2 V 5 C 21,3.9 20.1,3 19,3 Z"
     id="path4"
     inkscape:connector-curvature="0"
     sodipodi:nodetypes="cccccsssssssss" />
  <g
     id="g28"
     transform="matrix(0.48728814,0,0,0.48728814,6.1525423,6.027966)">
    <path
       id="path14"
       d="M 0,0 H 24 V 24 H 0 Z"
       inkscape:connector-curvature="0"
       style="fill:none" />
    <path
       id="path16"
       d="m 12,3 v 9.28 C 11.53,12.11 11.03,12 10.5,12 8.01,12 6,14.01 6,16.5 c 0,2.49 2.01,4.5 4.5,4.5 2.31,0 4.2,-1.75 4.45,-4 H 15 V 6 h 4 V 3 Z"
       inkscape:connector-curvature="0" />
  </g>
</svg>
